<?xml version="1.0" encoding="utf-8"?>
<!-- Generator: Adobe Illustrator 28.0.0, SVG Export Plug-In . SVG Version: 6.00 Build 0)  -->
<svg version="1.1" id="Layer_1" xmlns="http://www.w3.org/2000/svg" xmlns:xlink="http://www.w3.org/1999/xlink" x="0px" y="0px"
	 viewBox="0 0 1080 1080" enable-background="new 0 0 1080 1080" xml:space="preserve">
<g>
	<g>
		<g>
			<path fill="#FFFFFF" d="M860.7,1080H219.3C99.38,1080,1.81,982.43,1.81,862.49V540.45c0-57.81,22.44-112.24,63.17-153.26
				l320.7-322.95C426.81,22.81,481.61,0,540,0s113.19,22.81,154.33,64.24l320.7,322.95c40.73,41.02,63.17,95.44,63.17,153.26v322.04
				C1078.19,982.43,980.62,1080,860.7,1080z M540,59.29c-42.47,0-82.35,16.59-112.26,46.72l-320.7,322.95
				C77.41,458.8,61.1,498.4,61.1,540.45v322.04c0,87.24,70.97,158.22,158.21,158.22H860.7c87.24,0,158.21-70.98,158.21-158.22
				V540.45c0-42.05-16.31-81.65-45.94-111.48l-320.7-322.95C622.35,75.88,582.47,59.29,540,59.29z"/>
		</g>
		<g>
			<path fill="#FFFFFF" d="M753.02,804.2H326.98c-16.37,0-29.64-13.27-29.64-29.64s13.27-29.64,29.64-29.64h426.04
				c16.37,0,29.64,13.27,29.64,29.64S769.39,804.2,753.02,804.2z"/>
		</g>
	</g>
</g>
</svg>
