<?xml version="1.0" encoding="utf-8"?>
<!-- Generator: Adobe Illustrator 28.0.0, SVG Export Plug-In . SVG Version: 6.00 Build 0)  -->
<svg version="1.1" id="Layer_1" xmlns="http://www.w3.org/2000/svg" xmlns:xlink="http://www.w3.org/1999/xlink" x="0px" y="0px"
	 viewBox="0 0 1080 1080" enable-background="new 0 0 1080 1080" xml:space="preserve">
<g>
	<g>
		<path fill="#264F00" d="M623.21,559.95l-20.38-51.69l-20.38,11.6l19.3,72.56l-93.67,14.87l25.55-57l-29.64-44.51h-52.91
			l-28.5,49.28l27.36,52.23l-69.26-2.61l9.99-58.13l-54.73-40.76l-63.02,62.68l-7.04-146.36h-21.06l-0.4,143.29l10.79,41.9
			l-49.96-1.82l-5.56-132.28l-20.22-1.43l-3.86,29.59l-77.44,39.97l-8.18,54.5l90.38,3.63l9.31,23.05l16.24,10.67h124.44
			l37.06-17.02l15.17,15.2l77.32,1.82l18.89-16.14l43.67,16.14l77.44-3.63l25.55-33.04L623.21,559.95z M178.68,574.71h-56.55
			l2.16-21.91l54.39-21.91V574.71z M353.66,590.84l-39.4,14.99l-23.84-14.42l43.7-51.8l23.64,17.28L353.66,590.84z M473.67,584.7
			l-24.23-26.71l13.1-22.61h29.99l15.68,19.73l-20.12,29.59H473.67z"/>
		<polygon fill="#264F00" points="585.56,466.98 555.57,479.48 571.67,497.81 588.06,491.42 		"/>
		<polygon fill="#264F00" points="504.75,457.54 510.58,482.53 426.44,486 437.27,460.04 		"/>
		<polygon fill="#264F00" points="165.43,449.42 160.14,481.98 100.16,515.3 86.68,485.31 		"/>
	</g>
	<path fill="#264F00" d="M950.1,410l-252.79-13.66L675.7,684.57l318.39-7.65L950.1,410z M833.24,494.94l-15.56,31.14h-12.23
		l-7.28-40.05L833.24,494.94z M850.14,555.99l-71.22,73.7l-39.34-111.14l22.1-0.47l24.73,55.37l52.16-28.9l37.99-85.13h38.98
		L850.14,555.99z"/>
</g>
</svg>
