<?xml version="1.0" encoding="utf-8"?>
<!-- Generator: Adobe Illustrator 28.0.0, SVG Export Plug-In . SVG Version: 6.00 Build 0)  -->
<svg version="1.1" id="Layer_1" xmlns="http://www.w3.org/2000/svg" xmlns:xlink="http://www.w3.org/1999/xlink" x="0px" y="0px"
	 viewBox="0 0 1080 1080" enable-background="new 0 0 1080 1080" xml:space="preserve">
<g>
	<g>
		<g>
			<path fill="#FFFFFF" d="M939.56,1080.91H140.23c-44.11,0-109.74-29.22-109.74-109.74c0-97.22,91.52-349.55,509.41-349.55
				s509.41,252.33,509.41,349.55C1049.31,1051.69,983.67,1080.91,939.56,1080.91z M140.4,1021.3h799.16
				c11.57-0.2,50.14-4.45,50.14-50.12c0-80.65-80.81-289.93-449.8-289.93S90.1,890.53,90.1,971.17
				C90.1,1016.74,128.48,1021.07,140.4,1021.3z"/>
		</g>
		<g>
			<path fill="#FFFFFF" d="M539.9,539.21c-148.67,0-269.62-120.95-269.62-269.6S391.23,0,539.9,0c148.66,0,269.6,120.95,269.6,269.6
				S688.56,539.21,539.9,539.21z M539.9,59.61c-115.79,0-210,94.19-210,209.99s94.21,209.99,210,209.99S749.89,385.4,749.89,269.6
				S655.69,59.61,539.9,59.61z"/>
		</g>
	</g>
</g>
</svg>
