<?xml version="1.0" encoding="utf-8"?>
<!-- Generator: Adobe Illustrator 28.0.0, SVG Export Plug-In . SVG Version: 6.00 Build 0)  -->
<svg version="1.1" id="Layer_1" xmlns="http://www.w3.org/2000/svg" xmlns:xlink="http://www.w3.org/1999/xlink" x="0px" y="0px"
	 viewBox="0 0 1080 1080" enable-background="new 0 0 1080 1080" xml:space="preserve">
<g>
	<g>
		<g>
			<g>
				<path fill="#FFFFFF" d="M540.01,1068.82c-54.47,0-99.62-33.77-115.03-86.02l-6.26-21.23c-5.44-18.46-18.75-33.25-36.51-40.62
					c-17.75-7.34-37.63-6.3-54.52,2.89l-19.44,10.61c-47.83,26.07-103.63,18.02-142.18-20.52c-38.52-38.52-46.57-94.32-20.53-142.15
					l10.61-19.47c9.19-16.88,10.25-36.76,2.89-54.53c-7.35-17.75-22.15-31.06-40.59-36.5l-21.26-6.27
					C44.94,639.62,11.17,594.47,11.17,540s33.77-99.62,86.02-115.01l21.26-6.27c18.44-5.44,33.24-18.75,40.59-36.5
					c7.36-17.77,6.3-37.65-2.89-54.53l-10.6-19.45c-26.06-47.84-18-103.64,20.52-142.16c38.52-38.5,94.29-46.56,142.16-20.52
					l19.45,10.61c16.86,9.17,36.76,10.25,54.52,2.89c17.77-7.36,31.07-22.16,36.51-40.6l6.27-21.26c15.39-52.24,60.54-86,115.01-86
					s99.62,33.77,115.03,86.02l6.26,21.25c5.43,18.44,18.75,33.24,36.51,40.6c17.75,7.34,37.63,6.31,54.52-2.9l19.45-10.58
					c47.88-26.07,103.66-17.99,142.16,20.5c38.52,38.52,46.57,94.32,20.52,142.16l-10.61,19.45c-9.19,16.88-10.25,36.76-2.89,54.53
					c7.36,17.75,22.16,31.06,40.6,36.49l21.26,6.29c52.24,15.39,86,60.54,86,115.01s-33.77,99.62-86.02,115.01l-21.23,6.27
					c-18.46,5.44-33.25,18.75-40.62,36.5c-7.36,17.77-6.3,37.65,2.89,54.53l10.6,19.45c26.06,47.84,18.02,103.64-20.5,142.16
					c-38.5,38.53-94.32,46.57-142.15,20.53l-19.48-10.62c-16.87-9.19-36.75-10.25-54.5-2.89c-17.77,7.36-31.09,22.16-36.53,40.6
					l-6.24,21.25C639.63,1035.05,594.48,1068.82,540.01,1068.82z M357.92,859.49c15.54,0,31.13,3.05,45.95,9.19
					c33.64,13.94,58.84,41.96,69.12,76.88l6.27,21.23c9.88,33.5,37.85,45.44,60.75,45.44c22.89,0,50.87-11.94,60.75-45.43
					l6.24-21.25c10.31-34.93,35.51-62.96,69.15-76.88c33.67-13.91,71.29-11.94,103.24,5.47l19.48,10.62
					c30.66,16.7,58.87,5.33,75.06-10.85c16.18-16.19,27.52-44.42,10.82-75.07l-10.58-19.45c-17.42-31.98-19.42-69.62-5.48-103.26
					c13.94-33.64,41.96-58.84,76.88-69.13l21.23-6.26c33.5-9.88,45.44-37.85,45.44-60.75s-11.94-50.87-45.43-60.75l-21.26-6.27
					c-34.91-10.28-62.93-35.48-76.87-69.12s-11.94-71.27,5.48-103.26l10.6-19.45c16.69-30.66,5.35-58.88-10.83-75.07
					c-16.21-16.18-44.4-27.55-75.07-10.82l-19.45,10.58c-32.01,17.42-69.62,19.41-103.26,5.48c-33.64-13.93-58.84-41.96-69.13-76.88
					l-6.26-21.25c-9.88-33.49-37.85-45.43-60.75-45.43c-22.89,0-50.87,11.94-60.75,45.43l-6.27,21.26
					c-10.28,34.91-35.48,62.93-69.12,76.87c-33.68,13.95-71.29,11.94-103.26-5.48l-19.45-10.6c-30.67-16.68-58.87-5.35-75.07,10.83
					c-16.18,16.19-27.53,44.42-10.83,75.09l10.58,19.44c17.42,31.98,19.42,69.62,5.48,103.26c-13.93,33.64-41.94,58.84-76.87,69.12
					l-21.26,6.27C79.7,489.13,67.76,517.11,67.76,540s11.94,50.87,45.43,60.75l21.26,6.27c34.93,10.28,62.94,35.48,76.87,69.12
					c13.94,33.64,11.94,71.27-5.48,103.26l-10.6,19.45c-16.69,30.66-5.33,58.88,10.85,75.07c16.21,16.19,44.42,27.56,75.09,10.83
					l19.42-10.6C318.5,864.4,338.18,859.49,357.92,859.49z M540.01,751.54c-116.64,0-211.54-94.9-211.54-211.54
					s94.9-211.53,211.54-211.53S751.54,423.36,751.54,540S656.65,751.54,540.01,751.54z M540.01,385.06
					c-85.45,0-154.96,69.51-154.96,154.94c0,85.45,69.51,154.96,154.96,154.96c85.44,0,154.94-69.51,154.94-154.96
					C694.95,454.56,625.44,385.06,540.01,385.06z"/>
			</g>
		</g>
	</g>
</g>
</svg>
