<?xml version="1.0" encoding="utf-8"?>
<!-- Generator: Adobe Illustrator 28.0.0, SVG Export Plug-In . SVG Version: 6.00 Build 0)  -->
<svg version="1.1" id="Layer_1" xmlns="http://www.w3.org/2000/svg" xmlns:xlink="http://www.w3.org/1999/xlink" x="0px" y="0px"
	 viewBox="0 0 1080 1080" enable-background="new 0 0 1080 1080" xml:space="preserve">
<g>
	<g>
		<path fill="#FFFFFF" d="M60.82,943.2c-11.05,0-22.07-2.81-31.75-8.36C11.01,924.48-0.2,905.66-0.2,885.72V260.44
			c0-23.02,14.47-43.74,36.88-52.8c30.67-12.42,140.32-53.77,263.45-64.81c100.59-9.01,181.1,4.92,239.76,41.57
			c58.67-36.64,139.17-50.58,239.77-41.57c123.11,11.04,232.77,52.39,263.45,64.8c22.41,9.08,36.88,29.8,36.88,52.82v625.28
			c0,19.94-11.21,38.76-29.25,49.1c-16.86,9.66-37.76,11.03-55.87,3.72c-54.76-22.14-143.1-48.48-226.83-56
			c-87.96-7.89-150.76,6.07-181.6,40.36c-11.59,12.9-28.57,20.29-46.56,20.29c-17.99,0-34.95-7.39-46.55-20.29
			c-30.84-34.29-93.6-48.25-181.6-40.36c-83.75,7.52-172.09,33.86-226.83,56C77.21,941.65,69,943.2,60.82,943.2z M722.45,822.26
			c16.09,0,33.02,0.79,50.8,2.38c113.34,10.19,214.98,48.5,243.43,60c1.58,0.64,3.79,0.54,5.18-0.24c0-0.01,0.01-0.01,0.01-0.01
			V261.93c-30.38-12.46-132.86-50.95-247.4-61.21c-66.07-5.96-157.39-3.48-216.92,42.05l-17.65,13.5l-17.65-13.5
			c-59.52-45.52-150.79-48.01-216.91-42.05c-115.16,10.32-218.06,49.13-246.85,60.78c-0.34,0.18-0.5,0.17-0.55,0.09V884.3
			c1.76,0.91,3.73,0.96,5.19,0.34c28.44-11.49,130.05-49.81,243.43-60c108.45-9.69,185.84,10.27,230.02,59.4
			c0.57,0.64,6.06,0.64,6.66,0C580.15,842.96,640.31,822.26,722.45,822.26z"/>
	</g>
</g>
</svg>
